**ABCDEFGHIJKLMNOPQRSTUVWXYZabcdefghijklmnopqrstuvwxyz**************************
**PARASOLID !"#$%&'()*+,-./:;<=>?@[\]^_`{|}~0123456789**************************
**PART1;
MC=x64/Windows NT;
MC_MODEL=genuineintel family 6 model 14 stepping 12, intel(r) core(tm) i5-10310u cpu @ 1.70ghz;
MC_ID=prodlapd3mpinb4;
OS=windows nt (x64);
OS_RELEASE=6.3 windows 10 enterprise (build 19042) ;
FRU=mdc_ugii_v7.0_djl_can_vrh;
APPL=unigraphics;
SITE=unknown;
USER=himanshu.ht.tiwari;
FORMAT=text;
GUISE=transmit;
KEY=Body4;
FILE=C:\Users\himanshu.ht.tiwari@siemensgamesa.com\OneDrive - SIEMENSGAMESA\Pramod_HT\test\Body4.x_t;
DATE=7-jul-2023;
**PART2;
SCH=SCH_3400176_34001;
USFLD_SIZE=0;
**PART3;
**END_OF_HEADER*****************************************************************
T51 : TRANSMIT FILE created by modeller version 340017623 SCH_3400176_34001_1300
6231 0 12 36 CCCI7 lattice222 0 CCCI4 mesh1006 0 I8 polyline1008 0 CCCCCCCDI5 ow
ner1040 0 CCCI16 boundary_lattice222 0 CCCI13 boundary_mesh1006 0 I17 boundary_p
olyline1008 0 CCCA16 index_map_offset0 0 1 dA9 index_map82 0 A17 node_id_index_m
ap82 0 A20 schema_embedding_map82 0 A5 child12 0 A14 lowest_node_id0 0 1 dA16 me
sh_offset_data206 0 Z1 166 2 3 0 0 0 0 0 0 0 1e3 1e-8 0 0 0 1 0 1 1 4 0 5 6 7 0
 0 8 9 10 0 0 0 0 0 0 0 81 255 1 2 154 11 1 12 0 0 0 13 70 11 CI9 list_type0 0 1
 uI10 notransmit0 0 1 lCCCDCCDI12 finger_index0 0 1 dI12 finger_block1012 0 CZ3
 0 4 T1 0 0 7 20 1 14 14 13 255 4 91 0 1 0 15 0 0 16 0 50 255 5 86 0 15 17 0 0 +
-.25 .1 .1 1 1110223024625156e-30 0 -1110223024625156e-30 1 0 30 255 6 90 0 18 1
9 0 0 +-.25 .1 .1 0 0 -1 29 255 7 67 0 20 21 0 .25 .1 0 19 9 CCCCCCI5 frame230 0
 CA5 owner12 0 Z8 1 0 1 16 0 22 0 V0 16 255 9 73 23 ?24 0 25 19 0 0 1 18 255 10
 15 0 26 0 27 28 ?1 17 255 26 0 29 30 31 10 32 33 0 34 +18 27 10 0 31 10 35 36 ?
1 29 28 17 0 10 36 37 .25 .1 .1 29 36 12 0 27 38 28 .25 -.1 .1 29 37 70 0 39 28
 40 -.25 .1 0 18 39 60 0 41 42 0 37 ?1 29 40 69 0 42 37 21 -.25 -.1 0 18 42 58 0
 43 44 39 40 ?1 29 21 68 0 44 40 7 .25 -.1 0 18 44 56 0 45 20 42 21 ?1 17 45 0 4
6 47 24 44 43 48 0 49 +18 20 54 0 50 51 44 7 ?1 17 50 0 52 34 49 20 53 54 0 55 +
18 51 2 0 30 35 20 56 ?1 17 30 0 29 57 26 51 58 59 0 60 +18 35 5 0 61 27 51 38 ?
1 29 56 4 0 51 0 38 -.25 .1 .1 29 38 7 0 35 56 36 -.25 -.1 .1 17 61 0 46 24 47 3
5 31 62 0 57 -15 255 46 79 0 45 63 0 17 24 0 46 45 61 42 64 9 0 65 +17 47 0 46 6
1 45 27 49 25 0 32 -17 31 0 29 26 57 27 61 62 0 47 +16 62 11 66 ?31 33 67 68 0 0
 1 17 57 0 29 31 30 35 69 67 0 64 +15 29 23 0 57 70 0 17 69 0 71 72 64 51 57 67
 0 0 -16 67 6 73 ?57 62 74 75 0 0 1 17 64 0 71 69 65 35 24 9 0 0 -15 71 81 0 65
 15 0 17 65 0 71 64 72 42 76 77 0 0 +17 72 0 71 65 69 39 60 18 0 76 +17 76 0 78
 79 43 39 65 77 0 0 -16 77 52 80 ?65 48 0 81 0 0 1 81 1 80 166 82 77 83 0 84 0 8
5 16 48 50 84 ?45 54 77 86 0 0 1 30 81 66 0 77 87 86 0 +-.25 .1 0 11102230246251
56e-30 -1 0 30 87 22 0 59 88 81 0 +.25 .1 .1 -1 0 0 30 86 65 0 48 81 89 0 +-.25
 -.1 0 1 0 0 30 89 64 0 54 86 90 0 +.25 -.1 0 -1110223024625156e-30 1 0 16 54 48
 91 ?50 74 48 89 0 0 1 30 90 63 0 74 89 92 0 +.25 .1 0 -1 0 0 16 74 46 93 ?41 67
 54 90 0 0 1 30 92 87 0 94 90 95 0 +.25 .1 .1 0 0 -1 16 94 71 96 ?55 25 18 92 0
 0 1 30 95 88 0 25 92 19 0 +.25 -.1 .1 0 0 -1 16 25 72 97 ?49 9 94 95 0 0 1 30 1
9 89 0 9 95 6 0 +-.25 -.1 .1 0 0 -1 81 1 97 156 82 25 98 0 23 96 99 17 49 0 52 5
0 32 44 47 25 0 53 +15 52 77 0 50 100 0 17 32 0 52 49 34 27 26 33 0 0 -17 53 0 7
8 43 79 44 50 54 0 0 -15 78 45 0 76 101 0 17 43 0 78 76 53 42 45 48 0 24 -17 79
 0 78 53 76 20 41 74 0 0 -17 41 0 102 60 55 39 79 74 0 72 +15 102 75 0 41 103 0
 17 60 0 102 58 41 51 72 18 0 69 -17 55 0 102 41 58 20 34 94 0 79 +17 58 0 102 5
5 60 10 30 59 0 0 -17 34 0 52 32 50 10 55 94 0 58 -16 59 20 104 ?30 18 33 87 0 0
 1 81 1 104 159 82 59 105 0 106 107 108 16 18 74 106 ?72 94 59 6 0 0 1 16 33 16
 107 ?26 59 62 88 0 0 1 81 1 107 160 82 33 109 0 104 66 110 30 88 19 0 33 68 87
 0 +.25 -.1 .1 -1110223024625156e-30 1 0 30 68 14 0 62 75 88 0 +-.25 -.1 .1 1 0
 0 30 75 9 0 67 0 68 0 +-.25 .1 .1 1110223024625156e-30 -1 0 80 7 CCCCCDI12 lega
l_owners0 16 1 lCZ1 82 0 111 8001 0 0 0 0 3 5 0 0 0 FFFFTFTFFFFFFFFF2 81 1 109 1
11 112 33 0 107 0 113 114 81 1 66 161 82 62 115 0 107 73 116 83 255 3 110 .59607
8431372549 .666666666666667 .686274509803922 81 1 115 117 112 62 0 66 117 98 118
 81 1 73 162 82 67 119 0 66 93 120 83 3 116 .596078431372549 .666666666666667 .6
86274509803922 81 1 119 113 112 67 0 73 113 121 122 81 1 93 163 82 74 123 0 73 9
1 124 83 3 120 .596078431372549 .666666666666667 .686274509803922 81 1 123 122 1
12 74 0 93 125 126 127 81 1 91 164 82 54 117 0 93 84 128 83 3 124 .5960784313725
49 .666666666666667 .686274509803922 81 1 117 116 112 54 0 91 105 115 129 81 1 8
4 165 82 48 113 0 91 80 130 83 3 128 .596078431372549 .666666666666667 .68627450
9803922 81 1 113 112 112 48 0 84 109 119 131 83 3 130 .596078431372549 .66666666
6666667 .686274509803922 80 1 112 132 133 9000 1 1 1 1 1 1 1 1 0 FFFFTFTFFFFFFFF
F3 84 255 32 131 399d004d75a9aee94c575b169e11d7f479 255 15 133 UGS/ObjectState81
 1 105 115 112 59 0 104 121 117 134 84 32 129 ccf38d9b788ce88883ecaab6fddc229481
 1 121 114 112 94 0 96 119 105 135 84 32 134 b023b32da12054a58853238490cd646f81
 1 96 157 82 94 121 0 97 106 136 84 32 135 bbeaa212c735696f6d30d58570ac4bda81 1
 106 158 82 18 125 0 96 104 137 83 3 136 .596078431372549 .666666666666667 .6862
74509803922 81 1 125 121 112 18 0 106 83 123 138 83 3 137 .596078431372549 .6666
66666666667 .686274509803922 81 1 83 120 112 77 0 80 139 125 140 84 32 138 4a9a1
49853139cf37a8011a92fe0229381 1 139 119 112 9 0 23 98 83 141 84 32 140 fe6f0c2e8
b67d65fc7a80482819e4ebd81 1 23 155 82 9 139 0 142 97 143 81 1 98 118 112 25 0 97
 115 139 144 84 32 141 2a6e04338020e7d5140597da9a3913b484 32 144 547c069319e6ec5
509684cfce5be119681 1 142 153 82 101 145 0 146 23 147 83 3 143 .596078431372549
 .666666666666667 .686274509803922 14 255 101 42 142 ?0 70 78 4 148 -0 0 0 70 22
 81 3 145 145 149 101 126 142 150 0 151 152 0 81 1 146 152 82 70 150 0 153 142 1
54 83 3 147 .596078431372549 .666666666666667 .686274509803922 14 70 24 146 ?101
 103 29 4 155 +0 0 101 103 22 81 3 150 144 149 70 156 146 157 145 158 159 0 81 1
 153 151 82 103 157 0 160 146 161 83 3 154 .596078431372549 .666666666666667 .68
6274509803922 14 103 76 153 ?70 100 102 4 162 -0 0 70 100 22 81 3 157 143 149 10
3 163 153 164 150 165 166 0 81 1 160 150 82 100 164 0 167 153 168 83 3 161 .5960
78431372549 .666666666666667 .686274509803922 14 100 78 160 ?103 63 52 4 169 -0
 0 103 63 22 81 3 164 142 149 100 170 160 171 157 172 173 0 81 1 167 149 82 63 1
71 0 174 160 175 83 3 168 .596078431372549 .666666666666667 .686274509803922 14
 63 80 167 ?100 15 46 4 17 -0 0 100 15 22 81 3 171 141 149 63 176 167 177 164 17
8 179 0 81 1 174 148 82 15 177 0 0 167 180 83 3 175 .596078431372549 .6666666666
66667 .686274509803922 14 15 82 174 ?63 0 71 4 5 -0 0 63 0 22 81 3 177 140 149 1
5 181 174 0 171 182 183 0 83 3 180 .596078431372549 .666666666666667 .6862745098
03922 80 3 149 184 185 9000 0 0 0 0 3 6 0 0 0 FFFFTFTTFFFFFFFF1 1 3 81 1 181 127
 112 15 0 177 156 163 186 82 255 1 182 0 82 1 183 23 81 1 156 126 112 70 0 150 1
76 181 187 81 1 163 128 112 103 0 157 181 0 188 84 32 186 553b8822d8e999f245e23a
d04c6a247284 32 188 e68af5110321ffc7eb6c2804de8d148081 1 176 125 112 63 0 171 17
0 156 189 84 32 187 5b761b889eaef774efcc0ff832b1c38481 1 170 124 112 100 0 164 1
26 176 190 84 32 189 5a0106a91615dfef96d1b58ed8b958a481 1 126 123 112 101 0 145
 123 170 191 84 32 190 722e051952317a5019a028ae4b257deb84 32 191 2edad2e8c90a946
d229a8a300a09054679 27 185 MONIKER/MONIKER_DATA_ATTRIB13 22 3 0 0 0 0 0 0 8 15 8
2 1 178 0 82 1 179 24 50 17 85 0 63 169 5 0 +-.25 -.1 .1 0 1 0 0 0 1 50 169 84 0
 100 162 17 0 +.25 -.1 .1 -1 -1110223024625156e-30 0 1110223024625156e-30 -1 0 5
0 162 83 0 103 148 169 0 +.25 .1 .1 0 -1 0 0 0 -1 50 148 62 0 101 155 162 0 +0 0
 0 0 0 1 1 0 0 50 155 25 0 70 0 148 0 +0 0 .1 0 0 1 1 0 0 82 1 172 0 82 1 173 25
 82 1 165 0 82 1 166 26 82 1 158 0 82 1 159 27 82 1 151 0 82 1 152 28 84 32 127
 6e104cae56851db5668c88643b618bf284 32 122 c42b63093b5d23e50fd5c7a0a8fd4a1784 32
 118 2bb456b8e253f22dbe592572628d7b1e84 32 114 8b213b39cd80e701dddd5ee5569ef8727
9 15 111 SDL/TYSA_COLOUR83 3 108 .596078431372549 .666666666666667 .686274509803
922 83 3 99 .596078431372549 .666666666666667 .686274509803922 83 3 85 .59607843
1372549 .666666666666667 .686274509803922 19 16 92 0 1 0 8 4 0 S0 74 4 CI16 inde
x_map_offset0 0 1 dCCZ20 14 7 0 0 192 163 145 193 12 80 2 0 0 0 0 0 0 0 0 0 0 0
 0 0 81 2 192 109 194 1 0 193 0 0 195 196 81 3 193 146 197 1 192 12 0 0 198 199
 200 81 2 12 147 201 1 193 2 0 0 202 0 80 2 201 197 203 9000 2 2 2 2 3 6 0 0 0 F
FTFFFFFFFFFFFFF2 3 83 1 202 5038 79 22 203 MONIKER/BODY_ID_ATTRIB80 3 197 149 20
4 9000 0 0 0 0 3 6 0 0 0 FFTFFFFFFFFFFFFF3 3 1 84 38 198 {8be93b47-3b47-4220-8de
a-caeeb74011ab}84 27 199 NX 2027.4060-PARAMJEET.GILL82 1 200 0 79 25 204 MONIKER
/GUID_TABLE_ATTRIB80 2 194 205 206 8004 0 0 0 0 3 5 0 0 0 FFTFFFFFFFFFFFFF2 3 83
 1 195 0 84 8 196 Kg/Cu M 79 16 206 SDL/TYSA_DENSITY80 1 11 82 207 8040 0 0 0 0
 3 5 0 0 0 TTTFFFFFFFFFFFFF2 83 3 13 .596078431372549 .666666666666667 .68627450
9803922 79 17 207 SDL/TYSA_COLOUR_21 0 
