**ABCDEFGHIJKLMNOPQRSTUVWXYZabcdefghijklmnopqrstuvwxyz**************************
**PARASOLID !"#$%&'()*+,-./:;<=>?@[\]^_`{|}~0123456789**************************
**PART1;
MC=x64/Windows NT;
MC_MODEL=genuineintel family 6 model 14 stepping 12, intel(r) core(tm) i5-10310u cpu @ 1.70ghz;
MC_ID=prodlapd3mpinb4;
OS=windows nt (x64);
OS_RELEASE=6.3 windows 10 enterprise (build 19042) ;
FRU=mdc_ugii_v7.0_djl_can_vrh;
APPL=unigraphics;
SITE=unknown;
USER=himanshu.ht.tiwari;
FORMAT=text;
GUISE=transmit;
KEY=Body1;
FILE=C:\Users\himanshu.ht.tiwari@siemensgamesa.com\OneDrive - SIEMENSGAMESA\Pramod_HT\test\Body1.x_t;
DATE=7-jul-2023;
**PART2;
SCH=SCH_3400176_34001;
USFLD_SIZE=0;
**PART3;
**END_OF_HEADER*****************************************************************
T51 : TRANSMIT FILE created by modeller version 340017623 SCH_3400176_34001_1300
6231 0 12 36 CCCI7 lattice222 0 CCCI4 mesh1006 0 I8 polyline1008 0 CCCCCCCDI5 ow
ner1040 0 CCCI16 boundary_lattice222 0 CCCI13 boundary_mesh1006 0 I17 boundary_p
olyline1008 0 CCCA16 index_map_offset0 0 1 dA9 index_map82 0 A17 node_id_index_m
ap82 0 A20 schema_embedding_map82 0 A5 child12 0 A14 lowest_node_id0 0 1 dA16 me
sh_offset_data206 0 Z1 67 2 3 0 0 0 0 0 0 0 1e3 1e-8 0 0 0 1 0 1 1 4 0 5 6 0 0 0
 7 8 0 0 0 0 0 0 0 0 81 255 1 2 65 9 1 10 0 0 0 11 70 11 CI9 list_type0 0 1 uI10
 notransmit0 0 1 lCCCDCCDI12 finger_index0 0 1 dI12 finger_block1012 0 CZ3 0 4 T
1 0 0 3 20 1 12 12 13 255 4 30 0 1 0 13 0 0 14 0 51 255 5 29 0 13 15 0 0 -0 0 .2
4 0 0 -1 .0125 -1 0 0 31 255 6 24 0 16 17 0 0 +0 0 .22 0 0 1 1 0 0 .0125 19 9 CC
CCCCI5 frame230 0 CA5 owner12 0 Z7 1 0 1 14 0 18 0 V0 16 255 8 2 19 ?20 0 16 17
 0 0 1 81 1 19 66 21 8 0 0 22 23 24 17 255 20 0 25 20 20 0 26 8 0 0 +16 16 21 23
 ?27 8 0 6 0 0 1 31 17 4 0 8 0 6 0 +0 0 .24 0 0 1 1 0 0 .0125 81 1 23 67 21 16 0
 0 19 0 28 17 27 0 29 27 27 0 30 16 0 0 +15 255 29 27 0 27 13 0 17 30 0 31 30 30
 0 27 16 0 0 -15 31 20 0 30 32 0 14 255 32 17 22 ?0 33 31 4 15 -0 0 0 33 18 81 1
 22 64 21 32 0 0 34 19 35 14 33 6 34 ?32 13 25 4 36 +0 0 32 13 18 50 255 15 23 0
 32 36 5 0 +0 0 .22 0 0 1 1 0 0 13 18 3 0 0 0 0 0 0 7 13 14 13 26 37 ?33 0 38 4
 5 -0 0 33 0 18 81 1 37 62 21 13 0 0 0 34 39 15 38 25 0 26 13 29 17 26 0 38 26 2
6 0 20 8 0 0 -80 7 CCCCCDI12 legal_owners0 16 1 lCZ1 21 0 40 8001 0 0 0 0 3 5 0
 0 0 FFFFTFTFFFFFFFFF2 81 1 34 63 21 33 0 0 37 22 41 83 255 3 39 .59607843137254
9 .666666666666667 .686274509803922 83 3 41 .596078431372549 .666666666666667 .6
86274509803922 79 255 15 40 SDL/TYSA_COLOUR50 36 7 0 33 0 15 0 +0 0 .24 0 0 1 1
 0 0 15 25 5 0 20 33 0 83 3 35 .596078431372549 .666666666666667 .68627450980392
2 83 3 28 .596078431372549 .666666666666667 .686274509803922 83 3 24 .5960784313
72549 .666666666666667 .686274509803922 19 14 31 0 1 0 7 4 0 S0 74 4 CI16 index_
map_offset0 0 1 dCCZ20 12 3 0 0 10 23 2 0 0 0 0 0 0 0 0 0 0 0 0 0 0 0 0 0 81 2 1
0 42 42 1 0 2 0 0 43 44 80 2 42 45 46 8004 0 0 0 0 3 5 0 0 0 FFTFFFFFFFFFFFFF2 3
 83 1 43 0 84 255 8 44 Kg/Cu M 79 16 46 SDL/TYSA_DENSITY80 1 9 21 47 8040 0 0 0
 0 3 5 0 0 0 TTTFFFFFFFFFFFFF2 83 3 11 .596078431372549 .666666666666667 .686274
509803922 79 17 47 SDL/TYSA_COLOUR_21 0 
