**ABCDEFGHIJKLMNOPQRSTUVWXYZabcdefghijklmnopqrstuvwxyz**************************
**PARASOLID !"#$%&'()*+,-./:;<=>?@[\]^_`{|}~0123456789**************************
**PART1;
MC=x64/Windows NT;
MC_MODEL=genuineintel family 6 model 14 stepping 12, intel(r) core(tm) i5-10310u cpu @ 1.70ghz;
MC_ID=prodlapd3mpinb4;
OS=windows nt (x64);
OS_RELEASE=6.3 windows 10 enterprise (build 19042) ;
FRU=mdc_ugii_v7.0_djl_can_vrh;
APPL=unigraphics;
SITE=unknown;
USER=himanshu.ht.tiwari;
FORMAT=text;
GUISE=transmit;
KEY=Body3;
FILE=C:\Users\himanshu.ht.tiwari@siemensgamesa.com\OneDrive - SIEMENSGAMESA\Pramod_HT\test\Body3.x_t;
DATE=7-jul-2023;
**PART2;
SCH=SCH_3400176_34001;
USFLD_SIZE=0;
**PART3;
**END_OF_HEADER*****************************************************************
T51 : TRANSMIT FILE created by modeller version 340017623 SCH_3400176_34001_1300
6231 0 12 36 CCCI7 lattice222 0 CCCI4 mesh1006 0 I8 polyline1008 0 CCCCCCCDI5 ow
ner1040 0 CCCI16 boundary_lattice222 0 CCCI13 boundary_mesh1006 0 I17 boundary_p
olyline1008 0 CCCA16 index_map_offset0 0 1 dA9 index_map82 0 A17 node_id_index_m
ap82 0 A20 schema_embedding_map82 0 A5 child12 0 A14 lowest_node_id0 0 1 dA16 me
sh_offset_data206 0 Z1 166 2 3 0 0 0 0 0 0 0 1e3 1e-8 0 0 0 1 0 1 1 4 0 5 6 7 0
 0 8 9 10 0 0 0 0 0 0 0 81 255 1 2 154 11 1 12 0 0 0 13 70 11 CI9 list_type0 0 1
 uI10 notransmit0 0 1 lCCCDCCDI12 finger_index0 0 1 dI12 finger_block1012 0 CZ3
 0 4 T1 0 0 6 20 1 14 14 13 255 4 3 0 1 0 15 0 0 16 0 50 255 5 86 0 15 17 0 0 +-
.25 -.1 .2 -1 -1110223024625156e-30 0 1110223024625156e-30 -1 0 30 255 6 90 0 18
 19 0 0 +-.25 -.1 .2 0 0 -1 29 255 7 67 0 20 21 0 .25 -.1 .1 19 9 CCCCCCI5 frame
230 0 CA5 owner12 0 Z8 1 0 1 16 0 22 0 V0 16 255 9 73 23 ?24 0 25 19 0 0 1 18 25
5 10 15 0 26 0 27 28 ?1 17 255 26 0 29 30 31 10 32 33 0 34 -18 27 10 0 35 10 36
 37 ?1 29 28 17 0 10 37 38 .25 -.1 .2 29 37 12 0 27 39 28 .25 .1 .2 29 38 70 0 4
0 28 41 -.25 -.1 .1 18 40 60 0 42 43 0 38 ?1 29 41 69 0 43 38 21 -.25 .1 .1 18 4
3 58 0 24 44 40 41 ?1 29 21 68 0 44 41 7 .25 .1 .1 18 44 56 0 45 20 43 21 ?1 17
 45 0 46 47 48 44 35 25 0 49 +18 20 54 0 32 50 44 7 ?1 17 32 0 51 49 34 20 26 33
 0 31 +18 50 2 0 52 36 20 53 ?1 17 52 0 54 55 56 50 42 18 0 30 -18 36 5 0 57 27
 50 39 ?1 29 53 4 0 50 0 39 -.25 -.1 .2 29 39 7 0 36 53 37 -.25 .1 .2 17 57 0 46
 48 47 36 24 9 0 58 -15 255 46 79 0 47 59 0 17 48 0 46 45 57 27 58 60 0 61 +17 4
7 0 46 57 45 43 62 63 0 64 -17 24 0 54 56 55 43 57 9 0 47 +17 58 0 65 66 61 36 4
8 60 0 55 -15 65 23 0 66 67 0 17 66 0 65 68 58 50 55 69 0 0 -17 61 0 65 58 68 27
 34 70 0 0 -16 60 11 71 ?48 70 69 72 0 0 1 17 55 0 54 24 52 36 66 69 0 0 +15 54
 81 0 56 15 0 16 69 6 73 ?55 60 74 75 0 0 1 81 1 73 162 76 69 0 0 71 77 78 16 74
 46 77 ?79 69 80 81 0 0 1 30 75 9 0 69 0 72 0 +-.25 -.1 .2 -1110223024625156e-30
 1 0 30 72 14 0 60 75 82 0 +-.25 .1 .2 1 0 0 30 82 19 0 70 72 83 0 +.25 .1 .2 11
10223024625156e-30 -1 0 16 70 16 84 ?34 85 60 82 0 0 1 30 83 22 0 85 82 86 0 +.2
5 -.1 .2 -1 0 0 16 85 20 87 ?30 18 70 83 0 0 1 30 86 66 0 88 83 89 0 +-.25 -.1 .
1 -1110223024625156e-30 1 0 16 88 52 90 ?64 63 0 86 0 0 1 30 89 65 0 63 86 91 0
 +-.25 .1 .1 1 0 0 16 63 50 92 ?62 80 88 89 0 0 1 30 91 64 0 80 89 81 0 +.25 .1
 .1 1110223024625156e-30 -1 0 16 80 48 93 ?94 74 63 91 0 0 1 30 81 63 0 74 91 95
 0 +.25 -.1 .1 -1 0 0 30 95 87 0 33 81 96 0 +.25 -.1 .2 0 0 -1 16 33 71 97 ?32 2
5 18 95 0 0 1 30 96 88 0 25 95 19 0 +.25 .1 .2 0 0 -1 16 25 72 98 ?45 9 33 96 0
 0 1 30 19 89 0 9 96 6 0 +-.25 .1 .2 0 0 -1 81 1 98 156 76 25 0 0 23 97 99 80 7
 CCCCCDI12 legal_owners0 16 1 lCZ1 76 0 100 8001 0 0 0 0 3 5 0 0 0 FFFFTFTFFFFFF
FFF2 81 1 23 155 76 9 0 0 101 98 102 81 1 97 157 76 33 0 0 98 103 104 83 255 3 9
9 .596078431372549 .666666666666667 .686274509803922 81 1 103 158 76 18 0 0 97 8
7 105 83 3 104 .596078431372549 .666666666666667 .686274509803922 16 18 74 103 ?
42 33 85 6 0 0 1 81 1 87 159 76 85 0 0 103 84 106 83 3 105 .596078431372549 .666
666666666667 .686274509803922 81 1 84 160 76 70 0 0 87 71 107 83 3 106 .59607843
1372549 .666666666666667 .686274509803922 81 1 71 161 76 60 0 0 84 73 108 83 3 1
07 .596078431372549 .666666666666667 .686274509803922 83 3 108 .596078431372549
 .666666666666667 .686274509803922 17 42 0 29 31 30 40 52 18 0 79 +15 29 75 0 31
 109 0 17 31 0 29 26 42 20 79 74 0 94 -17 30 0 29 42 26 50 68 85 0 66 +17 79 0 1
10 64 94 40 31 74 0 56 +15 110 45 0 64 111 0 17 64 0 110 62 79 43 56 88 0 0 +17
 94 0 110 79 62 20 49 80 0 0 +17 56 0 54 52 24 40 64 88 0 0 -17 62 0 110 94 64 4
4 47 63 0 0 +17 49 0 51 35 32 44 94 80 0 62 -15 51 77 0 49 112 0 17 35 0 51 34 4
9 27 45 25 0 48 -17 34 0 51 32 35 10 61 70 0 68 +17 68 0 65 61 66 10 30 85 0 0 -
14 255 112 78 113 ?109 59 51 4 114 +0 0 109 59 22 81 1 113 150 76 112 115 0 116
 117 118 14 109 76 117 ?67 112 29 4 119 +0 0 67 112 22 14 59 80 116 ?112 15 46 4
 17 +0 0 112 15 22 50 114 84 0 112 119 17 0 +.25 .1 .2 1 1110223024625156e-30 0
 -1110223024625156e-30 1 0 13 22 91 0 0 0 0 0 0 8 15 14 15 82 120 ?59 0 54 4 5 +
0 0 59 0 22 81 1 120 148 76 15 121 0 0 116 122 81 3 121 140 123 15 0 120 0 124 1
25 126 0 81 1 116 149 76 59 124 0 120 113 127 83 3 122 .596078431372549 .6666666
66666667 .686274509803922 81 3 124 141 123 59 0 116 121 115 128 129 0 83 3 127 .
596078431372549 .666666666666667 .686274509803922 80 3 123 130 131 9000 0 0 0 0
 3 6 0 0 0 FFFFTFTTFFFFFFFF1 1 3 81 3 115 142 123 112 0 113 124 132 133 134 0 82
 255 1 128 0 82 1 129 24 81 3 132 143 123 109 0 117 115 135 136 137 0 82 1 133 0
 82 1 134 25 81 1 117 151 76 109 132 0 113 138 139 81 3 135 144 123 67 0 138 132
 140 141 142 0 82 1 136 0 82 1 137 26 14 67 24 138 ?111 109 65 4 143 -0 0 111 10
9 22 81 1 138 152 76 67 135 0 117 101 144 81 3 140 145 123 111 0 101 135 0 145 1
46 0 82 1 141 0 82 1 142 27 14 111 42 101 ?0 67 110 4 147 +0 0 0 67 22 81 1 101
 153 76 111 140 0 138 23 148 82 1 145 0 82 1 146 28 83 3 148 .596078431372549 .6
66666666666667 .686274509803922 50 147 62 0 111 143 119 0 +0 0 .1 0 0 -1 -1 0 0
 50 143 25 0 67 0 147 0 +0 0 .2 0 0 -1 -1 0 0 50 119 83 0 109 147 114 0 +.25 -.1
 .2 0 -1 0 0 0 -1 83 3 144 .596078431372549 .666666666666667 .686274509803922 83
 3 139 .596078431372549 .666666666666667 .686274509803922 79 255 27 131 MONIKER/
MONIKER_DATA_ATTRIB82 1 125 0 82 1 126 23 50 17 85 0 59 114 5 0 +-.25 .1 .2 0 1
 0 0 0 1 83 3 118 .596078431372549 .666666666666667 .686274509803922 83 3 102 .5
96078431372549 .666666666666667 .686274509803922 79 15 100 SDL/TYSA_COLOUR81 1 9
3 164 76 80 0 0 77 92 149 81 1 77 163 76 74 0 0 73 93 150 81 1 92 165 76 63 0 0
 93 90 151 83 3 149 .596078431372549 .666666666666667 .686274509803922 81 1 90 1
66 76 88 0 0 92 0 152 83 3 151 .596078431372549 .666666666666667 .68627450980392
2 83 3 152 .596078431372549 .666666666666667 .686274509803922 83 3 150 .59607843
1372549 .666666666666667 .686274509803922 83 3 78 .596078431372549 .666666666666
667 .686274509803922 19 16 92 0 1 0 8 4 0 S0 74 4 CI16 index_map_offset0 0 1 dCC
Z20 14 6 0 0 153 140 154 12 90 2 0 0 0 0 0 0 0 0 0 0 0 0 0 0 81 2 153 109 155 1
 0 154 0 0 156 157 81 3 154 146 158 1 153 12 0 0 159 160 161 81 2 12 147 162 1 1
54 2 0 0 163 0 80 2 162 158 164 9000 2 2 2 2 3 6 0 0 0 FFTFFFFFFFFFFFFF2 3 83 1
 163 5042 79 22 164 MONIKER/BODY_ID_ATTRIB80 3 158 123 165 9000 0 0 0 0 3 6 0 0
 0 FFTFFFFFFFFFFFFF3 3 1 84 255 38 159 {eed588d3-88d3-4b5a-9f0a-843f085f0762}84
 27 160 NX 2027.4060-PARAMJEET.GILL82 1 161 0 79 25 165 MONIKER/GUID_TABLE_ATTRI
B80 2 155 166 167 8004 0 0 0 0 3 5 0 0 0 FFTFFFFFFFFFFFFF2 3 83 1 156 0 84 8 157
 Kg/Cu M 79 16 167 SDL/TYSA_DENSITY80 1 11 76 168 8040 0 0 0 0 3 5 0 0 0 TTTFFFF
FFFFFFFFF2 83 3 13 .596078431372549 .666666666666667 .686274509803922 79 17 168
 SDL/TYSA_COLOUR_21 0 
