**ABCDEFGHIJKLMNOPQRSTUVWXYZabcdefghijklmnopqrstuvwxyz**************************
**PARASOLID !"#$%&'()*+,-./:;<=>?@[\]^_`{|}~0123456789**************************
**PART1;
MC=x64/Windows NT;
MC_MODEL=genuineintel family 6 model 14 stepping 12, intel(r) core(tm) i5-10310u cpu @ 1.70ghz;
MC_ID=prodlapd3mpinb4;
OS=windows nt (x64);
OS_RELEASE=6.3 windows 10 enterprise (build 19042) ;
FRU=mdc_ugii_v7.0_djl_can_vrh;
APPL=unigraphics;
SITE=unknown;
USER=himanshu.ht.tiwari;
FORMAT=text;
GUISE=transmit;
KEY=Body5;
FILE=C:\Users\himanshu.ht.tiwari@siemensgamesa.com\OneDrive - SIEMENSGAMESA\Pramod_HT\test\Body5.x_t;
DATE=7-jul-2023;
**PART2;
SCH=SCH_3400176_34001;
USFLD_SIZE=0;
**PART3;
**END_OF_HEADER*****************************************************************
T51 : TRANSMIT FILE created by modeller version 340017623 SCH_3400176_34001_1300
6231 0 12 36 CCCI7 lattice222 0 CCCI4 mesh1006 0 I8 polyline1008 0 CCCCCCCDI5 ow
ner1040 0 CCCI16 boundary_lattice222 0 CCCI13 boundary_mesh1006 0 I17 boundary_p
olyline1008 0 CCCA16 index_map_offset0 0 1 dA9 index_map82 0 A17 node_id_index_m
ap82 0 A20 schema_embedding_map82 0 A5 child12 0 A14 lowest_node_id0 0 1 dA16 me
sh_offset_data206 0 Z1 216 2 3 0 0 4 0 0 0 0 1e3 1e-8 0 0 0 1 0 1 1 5 0 6 7 8 0
 0 9 10 11 0 0 0 0 0 0 0 81 255 1 2 202 12 1 13 0 0 0 14 70 11 CI9 list_type0 0
 1 uI10 notransmit0 0 1 lCCCDCCDI12 finger_index0 0 1 dI12 finger_block1012 0 CZ
3 0 4 T1 0 0 5 20 1 15 15 30 255 4 183 0 1 16 0 0 +.15 -.12 .1 1 0 0 13 255 5 91
 0 1 0 17 0 0 18 0 50 255 6 86 0 19 20 0 0 +.05 -.12 .125 1 1300576718080174e-45
 1110223024625156e-30 -1110223024625156e-30 1171455364582524e-30 1 31 255 7 165
 0 10 21 0 0 +.15 -.12 .1 0 -1 1171455364582524e-30 1 0 0 .0125 29 255 8 67 0 22
 23 0 .25 -.1 .125 19 9 CCCCCCI5 frame230 0 CA5 owner12 0 Z9 1 0 1 18 0 24 0 V0
 16 255 10 162 25 ?26 0 27 7 0 0 1 18 255 11 15 0 28 0 29 30 ?1 17 255 28 0 31 3
2 33 11 34 35 0 36 +18 29 10 0 33 11 37 38 ?1 29 30 17 0 11 38 39 .25 -.12 .125
 29 38 12 0 29 40 30 .25 -.12 .075 29 39 70 0 41 30 42 .05 -.1 .125 18 41 60 0 4
3 44 0 39 ?1 29 42 69 0 44 39 23 .05 -.1 .075 18 44 58 0 45 46 41 42 ?1 29 23 68
 0 46 42 8 .25 -.1 .075 18 46 56 0 47 22 44 23 ?1 17 47 0 48 49 50 46 45 51 0 52
 +18 22 54 0 53 54 46 8 ?1 17 53 0 55 36 52 22 56 57 0 58 +18 54 2 0 32 37 22 59
 ?1 17 32 0 31 60 28 54 61 62 0 63 +18 37 5 0 64 29 54 40 ?1 29 59 4 0 54 0 40 .
05 -.12 .125 29 40 7 0 37 59 38 .05 -.12 .075 17 64 0 48 50 49 37 33 65 0 60 -15
 255 48 79 0 47 66 0 17 50 0 48 47 64 44 67 27 0 68 +17 49 0 48 64 47 29 52 69 0
 34 -17 33 0 31 28 60 29 64 65 0 49 +16 65 11 70 ?33 35 71 72 0 0 1 17 60 0 31 3
3 32 37 73 71 0 67 +15 31 23 0 60 74 0 17 73 0 75 76 67 54 60 71 0 0 -16 71 6 77
 ?60 65 78 79 0 0 1 17 67 0 75 73 68 37 50 27 0 0 -15 75 81 0 68 19 0 17 68 0 75
 67 76 44 80 81 0 0 +16 27 73 82 ?50 10 69 83 0 0 1 81 1 82 205 84 27 0 0 25 85
 86 16 69 72 85 ?52 27 87 88 0 0 1 30 83 89 0 27 88 21 0 +.05 -.12 .075 0 1 -117
1455364582524e-30 30 88 88 0 69 89 83 0 +.25 -.12 .075 0 1 -1171455364582524e-30
 30 21 90 0 90 83 7 0 +.05 -.12 .125 0 1 -1171455364582524e-30 16 90 74 91 ?76 8
7 62 21 0 0 1 81 1 91 208 84 90 0 0 92 93 94 17 76 0 75 68 73 41 63 90 0 80 +16
 87 71 92 ?58 69 90 89 0 0 1 16 62 20 93 ?32 90 35 95 0 0 1 81 1 93 209 84 62 0
 0 91 96 97 16 35 16 96 ?28 62 65 98 0 0 1 30 95 22 0 62 98 99 0 +.25 -.12 .125
 -1 0 0 30 98 19 0 35 72 95 0 +.25 -.12 .075 -1110223024625156e-30 1171455364582
524e-30 1 30 99 66 0 81 95 100 0 +.05 -.1 .125 1110223024625156e-30 -11714553645
82524e-30 -1 16 81 52 101 ?68 51 0 99 0 0 1 30 100 65 0 51 99 102 0 +.05 -.1 .07
5 1 0 0 16 51 50 103 ?47 57 81 100 0 0 1 30 102 64 0 57 100 104 0 +.25 -.1 .075
 -1110223024625156e-30 1171455364582524e-30 1 16 57 48 105 ?53 78 51 102 0 0 1 3
0 104 63 0 78 102 89 0 +.25 -.1 .125 -1 0 0 16 78 46 106 ?43 71 57 104 0 0 1 30
 89 87 0 87 104 88 0 +.25 -.12 .125 0 1 -1171455364582524e-30 81 1 106 213 84 78
 0 0 77 105 107 17 43 0 108 63 58 41 109 78 0 76 +15 108 75 0 43 110 0 17 63 0 1
08 61 43 54 76 90 0 73 -17 58 0 108 43 61 22 36 87 0 109 +17 109 0 111 56 80 22
 43 78 0 0 -15 111 45 0 80 112 0 17 56 0 111 45 109 46 53 57 0 0 -17 80 0 111 10
9 45 41 68 81 0 0 -17 45 0 111 80 56 44 47 51 0 50 -14 255 112 42 113 ?0 74 111
 5 114 -0 0 0 74 24 81 1 113 201 84 112 0 0 115 25 116 14 74 24 115 ?112 110 117
 5 118 +17 17 112 110 24 50 114 62 0 112 118 119 0 +.15 -.1 .1 0 -1 117145536458
2524e-30 1 0 0 13 24 3 0 0 0 0 0 0 9 17 14 17 166 120 ?19 0 121 5 118 +74 74 19
 0 24 81 1 120 203 122 17 123 0 0 0 124 14 19 82 125 ?66 17 75 5 6 -0 0 66 17 24
 15 121 163 0 26 17 0 50 118 25 0 74 0 114 0 +.15 -.12 .1 0 -1 1171455364582524e
-30 1 0 0 17 26 0 121 26 26 0 126 10 0 0 +17 126 0 117 126 126 0 26 10 0 0 -15 1
17 164 0 126 74 31 81 1 125 196 84 19 0 0 123 127 128 14 66 80 127 ?129 19 48 5
 20 -0 0 129 19 24 81 1 127 197 84 66 0 0 125 130 131 14 129 78 130 ?110 66 55 5
 132 -0 0 110 66 24 50 20 85 0 66 132 6 0 +.05 -.12 .075 0 1171455364582524e-30
 1 0 -1 1171455364582524e-30 50 132 84 0 129 119 20 0 +.25 -.12 .075 -1 -1300576
718080174e-45 -1110223024625156e-30 1110223024625156e-30 -1171455364582524e-30 -
1 50 119 83 0 110 114 132 0 +.25 -.12 .125 0 -1171455364582524e-30 -1 0 1 -11714
55364582524e-30 14 110 76 133 ?74 129 108 5 119 -0 0 74 129 24 81 1 133 199 84 1
10 0 0 130 115 134 80 7 CCCCCDI12 legal_owners0 16 1 lCZ1 84 0 135 8001 0 0 0 0
 3 5 0 0 0 FFFFTFTFFFFFFFFF2 81 1 130 198 84 129 0 0 127 133 136 81 1 115 200 84
 74 0 0 133 113 137 83 255 3 134 .596078431372549 .666666666666667 .686274509803
922 83 3 137 .596078431372549 .666666666666667 .686274509803922 83 3 136 .596078
431372549 .666666666666667 .686274509803922 79 255 15 135 SDL/TYSA_COLOUR15 55 7
7 0 53 129 0 83 3 131 .596078431372549 .666666666666667 .686274509803922 81 1 12
3 195 84 17 0 120 0 125 138 83 3 128 .596078431372549 .666666666666667 .68627450
9803922 83 3 138 .596078431372549 .666666666666667 .686274509803922 80 1 122 139
 140 8038 0 0 0 0 0 0 0 0 0 TTTTTTTTTTTTTFTF10 98 255 11 124 70 65 67 69 49 95 7
3 78 84 70 49 79 14 140 SDL/TYSA_UNAME81 1 25 204 84 10 0 0 113 82 141 83 3 116
 .596078431372549 .666666666666667 .686274509803922 83 3 141 .596078431372549 .6
66666666666667 .686274509803922 17 61 0 108 58 63 11 32 62 0 0 -17 36 0 55 34 53
 11 58 87 0 61 -17 34 0 55 52 36 29 28 35 0 0 -17 52 0 55 53 34 46 49 69 0 56 +8
1 1 77 212 84 71 0 0 70 106 142 81 1 105 214 84 57 0 0 106 103 143 83 3 107 .596
078431372549 .666666666666667 .686274509803922 81 1 103 215 84 51 0 0 105 101 14
4 83 3 143 .596078431372549 .666666666666667 .686274509803922 81 1 101 216 84 81
 0 0 103 0 145 83 3 144 .596078431372549 .666666666666667 .686274509803922 83 3
 145 .596078431372549 .666666666666667 .686274509803922 81 1 70 211 84 65 0 0 96
 77 146 83 3 142 .596078431372549 .666666666666667 .686274509803922 81 1 96 210
 84 35 0 0 93 70 147 83 3 146 .596078431372549 .666666666666667 .686274509803922
 83 3 147 .596078431372549 .666666666666667 .686274509803922 30 72 14 0 65 79 98
 0 +.05 -.12 .075 1 0 0 30 79 9 0 71 0 72 0 +.05 -.12 .125 1110223024625156e-30
 -1171455364582524e-30 -1 83 3 97 .596078431372549 .666666666666667 .68627450980
3922 81 1 92 207 84 87 0 0 85 91 148 81 1 85 206 84 69 0 0 82 92 149 83 3 148 .5
96078431372549 .666666666666667 .686274509803922 83 3 149 .596078431372549 .6666
66666666667 .686274509803922 83 3 94 .596078431372549 .666666666666667 .68627450
9803922 83 3 86 .596078431372549 .666666666666667 .686274509803922 19 18 92 0 1
 0 9 5 0 S0 30 16 182 0 1 150 4 0 +.15 -.12 .1 0 1171455364582524e-30 1 30 150 1
81 0 1 151 16 0 +.15 -.12 .1 1 0 0 30 151 180 0 1 152 150 0 +.15 -.12 .1 0 11714
55364582524e-30 1 30 152 179 0 1 153 151 0 +.15 -.12 .1 1 0 0 30 153 178 0 1 0 1
52 0 +.15 -.12 .1 0 1171455364582524e-30 1 74 4 CI16 index_map_offset0 0 1 dCCZ2
0 15 5 0 0 154 13 101 2 120 0 0 0 0 0 0 0 0 0 0 0 0 0 0 0 81 2 154 109 155 1 0 1
3 0 0 156 157 81 1 13 194 158 1 154 2 0 0 159 80 1 158 160 161 9000 0 0 0 0 3 5
 0 0 0 FFTFFFFFFFFFFFFF1 82 255 1 159 -1 79 19 161 UG2/PMARK_ATTRIBUTE80 2 155 1
62 163 8004 0 0 0 0 3 5 0 0 0 FFTFFFFFFFFFFFFF2 3 83 1 156 0 84 255 8 157 Kg/Cu
 M 79 16 163 SDL/TYSA_DENSITY80 1 12 84 164 8040 0 0 0 0 3 5 0 0 0 TTTFFFFFFFFFF
FFF2 83 3 14 .596078431372549 .666666666666667 .686274509803922 79 17 164 SDL/TY
SA_COLOUR_21 0 
